<?xml version="1.0" encoding="UTF-8"?>
<svg xmlns="http://www.w3.org/2000/svg" xmlns:xlink="http://www.w3.org/1999/xlink" width="1920pt" height="1080pt" viewBox="0 0 1920 1080" version="1.1">
<defs>
<g>
<symbol overflow="visible" id="glyph0-0">
<path style="stroke:none;" d="M 0.171875 0.59375 L 0.171875 -2.34375 L 1.828125 -2.34375 L 1.828125 0.59375 Z M 0.359375 0.40625 L 1.640625 0.40625 L 1.640625 -2.15625 L 0.359375 -2.15625 Z "/>
</symbol>
<symbol overflow="visible" id="glyph0-1">
<path style="stroke:none;" d="M 1.359375 -0.125 C 1.628906 -0.125 1.832031 -0.210938 1.96875 -0.390625 C 2.101562 -0.578125 2.171875 -0.847656 2.171875 -1.203125 C 2.171875 -1.566406 2.101562 -1.835938 1.96875 -2.015625 C 1.832031 -2.203125 1.628906 -2.296875 1.359375 -2.296875 C 1.097656 -2.296875 0.898438 -2.203125 0.765625 -2.015625 C 0.628906 -1.835938 0.5625 -1.566406 0.5625 -1.203125 C 0.5625 -0.847656 0.628906 -0.578125 0.765625 -0.390625 C 0.898438 -0.210938 1.097656 -0.125 1.359375 -0.125 Z M 1.359375 0.046875 C 1.203125 0.046875 1.050781 0.0195312 0.90625 -0.03125 C 0.769531 -0.0820312 0.648438 -0.160156 0.546875 -0.265625 C 0.421875 -0.390625 0.328125 -0.53125 0.265625 -0.6875 C 0.210938 -0.84375 0.1875 -1.015625 0.1875 -1.203125 C 0.1875 -1.398438 0.210938 -1.578125 0.265625 -1.734375 C 0.328125 -1.890625 0.421875 -2.03125 0.546875 -2.15625 C 0.648438 -2.257812 0.769531 -2.335938 0.90625 -2.390625 C 1.039062 -2.441406 1.191406 -2.46875 1.359375 -2.46875 C 1.710938 -2.46875 2 -2.351562 2.21875 -2.125 C 2.4375 -1.894531 2.546875 -1.585938 2.546875 -1.203125 C 2.546875 -1.015625 2.515625 -0.84375 2.453125 -0.6875 C 2.390625 -0.53125 2.300781 -0.390625 2.1875 -0.265625 C 2.070312 -0.160156 1.945312 -0.0820312 1.8125 -0.03125 C 1.675781 0.0195312 1.523438 0.046875 1.359375 0.046875 Z "/>
</symbol>
<symbol overflow="visible" id="glyph0-2">
<path style="stroke:none;" d="M 0.1875 0 L 0.1875 -0.171875 L 0.5 -0.171875 L 0.5 -2.25 L 0.1875 -2.25 L 0.1875 -2.421875 L 1.125 -2.421875 L 1.125 -2.25 L 0.828125 -2.25 L 0.828125 -1.328125 L 1.875 -2.25 L 1.609375 -2.25 L 1.609375 -2.421875 L 2.40625 -2.421875 L 2.40625 -2.25 L 2.140625 -2.25 L 1.09375 -1.34375 L 2.265625 -0.171875 L 2.53125 -0.171875 L 2.53125 0 L 1.96875 0 L 0.828125 -1.15625 L 0.828125 -0.171875 L 1.125 -0.171875 L 1.125 0 Z "/>
</symbol>
</g>
</defs>
<g id="surface147">
<g style="fill:rgb(51.372549%,75.686275%,40.392157%);fill-opacity:1;">
  <use xlink:href="#glyph0-1" x="30" y="23.09375"/>
  <use xlink:href="#glyph0-2" x="33" y="23.09375"/>
</g>
</g>
</svg>
