<?xml version="1.0" encoding="UTF-8"?>
<svg xmlns="http://www.w3.org/2000/svg" xmlns:xlink="http://www.w3.org/1999/xlink" width="1920pt" height="1080pt" viewBox="0 0 1920 1080" version="1.1">
<defs>
<g>
<symbol overflow="visible" id="glyph0-0">
<path style="stroke:none;" d="M 0.21875 0.78125 L 0.21875 -3.125 L 2.4375 -3.125 L 2.4375 0.78125 Z M 0.46875 0.53125 L 2.1875 0.53125 L 2.1875 -2.875 L 0.46875 -2.875 Z "/>
</symbol>
<symbol overflow="visible" id="glyph0-1">
<path style="stroke:none;" d="M 0.421875 -0.21875 C 0.421875 -0.300781 0.445312 -0.367188 0.5 -0.421875 C 0.550781 -0.484375 0.617188 -0.515625 0.703125 -0.515625 C 0.785156 -0.515625 0.851562 -0.484375 0.90625 -0.421875 C 0.96875 -0.367188 1 -0.300781 1 -0.21875 C 1 -0.144531 0.96875 -0.078125 0.90625 -0.015625 C 0.851562 0.0351562 0.785156 0.0625 0.703125 0.0625 C 0.617188 0.0625 0.550781 0.0351562 0.5 -0.015625 C 0.445312 -0.078125 0.421875 -0.144531 0.421875 -0.21875 Z "/>
</symbol>
<symbol overflow="visible" id="glyph0-2">
<path style="stroke:none;" d="M 0.25 0 L 0.25 -0.234375 L 0.65625 -0.234375 L 0.65625 -3 L 0.25 -3 L 0.25 -3.234375 L 2.890625 -3.234375 L 2.890625 -2.515625 L 2.625 -2.515625 L 2.625 -2.96875 L 1.09375 -2.96875 L 1.09375 -1.890625 L 2.203125 -1.890625 L 2.203125 -2.296875 L 2.46875 -2.296875 L 2.46875 -1.21875 L 2.203125 -1.21875 L 2.203125 -1.625 L 1.09375 -1.625 L 1.09375 -0.234375 L 1.609375 -0.234375 L 1.609375 0 Z "/>
</symbol>
<symbol overflow="visible" id="glyph0-3">
<path style="stroke:none;" d="M 1.09375 -0.234375 L 1.515625 -0.234375 L 1.515625 0 L 0.25 0 L 0.25 -0.234375 L 0.65625 -0.234375 L 0.65625 -3 L 0.25 -3 L 0.25 -3.234375 L 1.515625 -3.234375 L 1.515625 -3 L 1.09375 -3 Z "/>
</symbol>
<symbol overflow="visible" id="glyph0-4">
<path style="stroke:none;" d="M 0.84375 0 L 0.84375 -0.234375 L 1.265625 -0.234375 L 1.265625 -2.984375 L 0.3125 -2.984375 L 0.3125 -2.46875 L 0.046875 -2.46875 L 0.046875 -3.234375 L 2.921875 -3.234375 L 2.921875 -2.46875 L 2.65625 -2.46875 L 2.65625 -2.984375 L 1.703125 -2.984375 L 1.703125 -0.234375 L 2.109375 -0.234375 L 2.109375 0 Z "/>
</symbol>
</g>
</defs>
<g id="surface17">
<g style="fill:rgb(100%,100%,100%);fill-opacity:1;">
  <use xlink:href="#glyph0-1" x="30" y="24.125"/>
  <use xlink:href="#glyph0-2" x="31" y="24.125"/>
  <use xlink:href="#glyph0-3" x="34" y="24.125"/>
  <use xlink:href="#glyph0-4" x="36" y="24.125"/>
</g>
</g>
</svg>
