<?xml version="1.0" encoding="UTF-8"?>
<svg xmlns="http://www.w3.org/2000/svg" xmlns:xlink="http://www.w3.org/1999/xlink" width="1920pt" height="1080pt" viewBox="0 0 1920 1080" version="1.1">
<defs>
<g>
<symbol overflow="visible" id="glyph0-0">
<path style="stroke:none;" d="M 0.359375 0 L 0.359375 -2.78125 L 1.96875 -2.78125 L 1.96875 0 Z M 0.5625 -0.203125 L 1.765625 -0.203125 L 1.765625 -2.578125 L 0.5625 -2.578125 Z "/>
</symbol>
<symbol overflow="visible" id="glyph0-1">
<path style="stroke:none;" d="M 0.140625 0 L 0.140625 -0.15625 L 0.203125 -0.15625 C 0.285156 -0.15625 0.359375 -0.171875 0.421875 -0.203125 C 0.484375 -0.234375 0.515625 -0.304688 0.515625 -0.421875 L 0.515625 -2.34375 C 0.515625 -2.457031 0.484375 -2.53125 0.421875 -2.5625 C 0.359375 -2.59375 0.285156 -2.609375 0.203125 -2.609375 L 0.140625 -2.609375 L 0.140625 -2.78125 L 1.03125 -2.78125 L 1.84375 -0.546875 L 2.640625 -2.78125 L 3.5 -2.78125 L 3.5 -2.609375 L 3.453125 -2.609375 C 3.359375 -2.609375 3.28125 -2.59375 3.21875 -2.5625 C 3.15625 -2.53125 3.125 -2.453125 3.125 -2.328125 L 3.125 -0.4375 C 3.125 -0.320312 3.15625 -0.242188 3.21875 -0.203125 C 3.28125 -0.171875 3.359375 -0.15625 3.453125 -0.15625 L 3.5 -0.15625 L 3.5 0 L 2.46875 0 L 2.46875 -0.15625 L 2.484375 -0.15625 C 2.566406 -0.15625 2.628906 -0.171875 2.671875 -0.203125 C 2.722656 -0.234375 2.753906 -0.300781 2.765625 -0.40625 L 2.765625 -2.484375 L 1.875 0 L 1.65625 0 L 0.75 -2.484375 L 0.75 -0.4375 C 0.75 -0.320312 0.773438 -0.242188 0.828125 -0.203125 C 0.878906 -0.171875 0.945312 -0.15625 1.03125 -0.15625 L 1.046875 -0.15625 L 1.046875 0 Z "/>
</symbol>
<symbol overflow="visible" id="glyph0-2">
<path style="stroke:none;" d="M 0.796875 0.03125 C 0.617188 0.03125 0.472656 -0.015625 0.359375 -0.109375 C 0.242188 -0.210938 0.1875 -0.367188 0.1875 -0.578125 C 0.1875 -0.785156 0.257812 -0.9375 0.40625 -1.03125 C 0.5625 -1.132812 0.785156 -1.191406 1.078125 -1.203125 L 1.40625 -1.21875 L 1.40625 -1.453125 C 1.40625 -1.546875 1.394531 -1.628906 1.375 -1.703125 C 1.363281 -1.773438 1.332031 -1.832031 1.28125 -1.875 C 1.226562 -1.914062 1.148438 -1.9375 1.046875 -1.9375 C 0.941406 -1.9375 0.863281 -1.914062 0.8125 -1.875 C 0.757812 -1.84375 0.722656 -1.789062 0.703125 -1.71875 C 0.691406 -1.65625 0.6875 -1.582031 0.6875 -1.5 C 0.582031 -1.5 0.5 -1.519531 0.4375 -1.5625 C 0.382812 -1.601562 0.359375 -1.664062 0.359375 -1.75 C 0.359375 -1.84375 0.390625 -1.914062 0.453125 -1.96875 C 0.515625 -2.019531 0.597656 -2.054688 0.703125 -2.078125 C 0.816406 -2.109375 0.9375 -2.125 1.0625 -2.125 C 1.300781 -2.125 1.476562 -2.070312 1.59375 -1.96875 C 1.707031 -1.875 1.765625 -1.703125 1.765625 -1.453125 L 1.765625 -0.4375 C 1.765625 -0.332031 1.78125 -0.257812 1.8125 -0.21875 C 1.851562 -0.175781 1.921875 -0.15625 2.015625 -0.15625 L 2.015625 0 L 1.5 0 L 1.4375 -0.328125 L 1.40625 -0.328125 C 1.351562 -0.253906 1.300781 -0.191406 1.25 -0.140625 C 1.195312 -0.0859375 1.132812 -0.046875 1.0625 -0.015625 C 1 0.0117188 0.910156 0.03125 0.796875 0.03125 Z M 0.890625 -0.203125 C 1.046875 -0.203125 1.171875 -0.25 1.265625 -0.34375 C 1.359375 -0.445312 1.40625 -0.582031 1.40625 -0.75 L 1.40625 -1.0625 L 1.15625 -1.046875 C 0.9375 -1.035156 0.785156 -0.988281 0.703125 -0.90625 C 0.617188 -0.832031 0.578125 -0.71875 0.578125 -0.5625 C 0.578125 -0.320312 0.679688 -0.203125 0.890625 -0.203125 Z "/>
</symbol>
<symbol overflow="visible" id="glyph0-3">
<path style="stroke:none;" d="M 0.90625 0.9375 C 0.632812 0.9375 0.429688 0.882812 0.296875 0.78125 C 0.160156 0.6875 0.09375 0.546875 0.09375 0.359375 C 0.09375 0.210938 0.140625 0.0976562 0.234375 0.015625 C 0.335938 -0.0546875 0.453125 -0.101562 0.578125 -0.125 C 0.523438 -0.15625 0.472656 -0.195312 0.421875 -0.25 C 0.378906 -0.300781 0.359375 -0.367188 0.359375 -0.453125 C 0.359375 -0.523438 0.378906 -0.585938 0.421875 -0.640625 C 0.460938 -0.703125 0.523438 -0.757812 0.609375 -0.8125 C 0.503906 -0.863281 0.421875 -0.941406 0.359375 -1.046875 C 0.296875 -1.148438 0.265625 -1.269531 0.265625 -1.40625 C 0.265625 -1.625 0.320312 -1.796875 0.4375 -1.921875 C 0.5625 -2.054688 0.75 -2.125 1 -2.125 C 1.09375 -2.125 1.179688 -2.109375 1.265625 -2.078125 C 1.347656 -2.054688 1.40625 -2.03125 1.4375 -2 C 1.476562 -2.039062 1.53125 -2.082031 1.59375 -2.125 C 1.65625 -2.175781 1.726562 -2.203125 1.8125 -2.203125 C 1.894531 -2.203125 1.953125 -2.179688 1.984375 -2.140625 C 2.023438 -2.097656 2.046875 -2.050781 2.046875 -2 C 2.046875 -1.945312 2.03125 -1.898438 2 -1.859375 C 1.96875 -1.816406 1.914062 -1.796875 1.84375 -1.796875 C 1.84375 -1.828125 1.832031 -1.859375 1.8125 -1.890625 C 1.800781 -1.921875 1.769531 -1.9375 1.71875 -1.9375 C 1.65625 -1.9375 1.597656 -1.921875 1.546875 -1.890625 C 1.585938 -1.835938 1.625 -1.769531 1.65625 -1.6875 C 1.6875 -1.613281 1.703125 -1.523438 1.703125 -1.421875 C 1.703125 -1.222656 1.640625 -1.0625 1.515625 -0.9375 C 1.398438 -0.8125 1.226562 -0.75 1 -0.75 C 0.96875 -0.75 0.929688 -0.75 0.890625 -0.75 C 0.847656 -0.757812 0.816406 -0.765625 0.796875 -0.765625 C 0.742188 -0.742188 0.695312 -0.710938 0.65625 -0.671875 C 0.625 -0.628906 0.609375 -0.578125 0.609375 -0.515625 C 0.609375 -0.472656 0.625 -0.4375 0.65625 -0.40625 C 0.6875 -0.382812 0.75 -0.375 0.84375 -0.375 L 1.28125 -0.375 C 1.519531 -0.375 1.6875 -0.316406 1.78125 -0.203125 C 1.882812 -0.0976562 1.9375 0.0351562 1.9375 0.203125 C 1.9375 0.429688 1.847656 0.609375 1.671875 0.734375 C 1.503906 0.867188 1.25 0.9375 0.90625 0.9375 Z M 0.984375 -0.9375 C 1.109375 -0.9375 1.195312 -0.972656 1.25 -1.046875 C 1.300781 -1.128906 1.328125 -1.253906 1.328125 -1.421875 C 1.328125 -1.597656 1.300781 -1.726562 1.25 -1.8125 C 1.195312 -1.894531 1.109375 -1.9375 0.984375 -1.9375 C 0.859375 -1.9375 0.765625 -1.890625 0.703125 -1.796875 C 0.648438 -1.710938 0.625 -1.585938 0.625 -1.421875 C 0.625 -1.253906 0.648438 -1.128906 0.703125 -1.046875 C 0.765625 -0.972656 0.859375 -0.9375 0.984375 -0.9375 Z M 0.90625 0.75 C 1.09375 0.75 1.234375 0.726562 1.328125 0.6875 C 1.429688 0.644531 1.503906 0.585938 1.546875 0.515625 C 1.585938 0.441406 1.609375 0.359375 1.609375 0.265625 C 1.609375 0.148438 1.570312 0.0703125 1.5 0.03125 C 1.4375 -0.0078125 1.34375 -0.03125 1.21875 -0.03125 L 0.828125 -0.03125 C 0.753906 -0.03125 0.6875 -0.0195312 0.625 0 C 0.5625 0.0195312 0.507812 0.0546875 0.46875 0.109375 C 0.425781 0.160156 0.40625 0.238281 0.40625 0.34375 C 0.40625 0.414062 0.414062 0.484375 0.4375 0.546875 C 0.46875 0.609375 0.519531 0.65625 0.59375 0.6875 C 0.664062 0.726562 0.769531 0.75 0.90625 0.75 Z "/>
</symbol>
</g>
</defs>
<g id="surface57">
<g style="fill:rgb(100%,100%,100%);fill-opacity:1;">
  <use xlink:href="#glyph0-1" x="30" y="24.158203"/>
  <use xlink:href="#glyph0-2" x="34" y="24.158203"/>
  <use xlink:href="#glyph0-3" x="36" y="24.158203"/>
</g>
</g>
</svg>
